<svg width="1440" height="761" viewBox="0 0 1440 761" fill="none" xmlns="http://www.w3.org/2000/svg">
<path d="M-120.955 -1H-161V39.0526M-120.955 -1V39.0526M-120.955 -1H-80.9091M-120.955 39.0526H-161M-120.955 39.0526V79.1053M-120.955 39.0526H-80.9091M-161 39.0526V79.1053M-120.955 79.1053H-161M-120.955 79.1053V119.158M-120.955 79.1053H-80.9091M-161 79.1053V119.158M-120.955 119.158H-161M-120.955 119.158V159.211M-120.955 119.158H-80.9091M-161 119.158V159.211M-120.955 159.211H-161M-120.955 159.211V199.263M-120.955 159.211H-80.9091M-161 159.211V199.263M-120.955 199.263H-161M-120.955 199.263V239.316M-120.955 199.263H-80.9091M-161 199.263V239.316M-120.955 239.316H-161M-120.955 239.316V279.368M-120.955 239.316H-80.9091M-161 239.316V279.368M-120.955 279.368H-161M-120.955 279.368V319.421M-120.955 279.368H-80.9091M-161 279.368V319.421M-120.955 319.421H-161M-120.955 319.421V359.474M-120.955 319.421H-80.9091M-161 319.421V359.474M-120.955 359.474H-161M-120.955 359.474V399.526M-120.955 359.474H-80.9091M-161 359.474V399.526M-120.955 399.526H-161M-120.955 399.526V439.579M-120.955 399.526H-80.9091M-161 399.526V439.579M-120.955 439.579H-161M-120.955 439.579V479.632M-120.955 439.579H-80.9091M-161 439.579V479.632M-120.955 479.632H-161M-120.955 479.632V519.684M-120.955 479.632H-80.9091M-161 479.632V519.684M-120.955 519.684H-161M-120.955 519.684V559.737M-120.955 519.684H-80.9091M-161 519.684V559.737M-120.955 559.737H-161M-120.955 559.737V599.789M-120.955 559.737H-80.9091M-161 559.737V599.789M-120.955 599.789H-161M-120.955 599.789V639.842M-120.955 599.789H-80.9091M-161 599.789V639.842M-120.955 639.842H-161M-120.955 639.842V679.895M-120.955 639.842H-80.9091M-161 639.842V679.895M-120.955 679.895H-161M-120.955 679.895V719.947M-120.955 679.895H-80.9091M-161 679.895V719.947M-120.955 719.947H-161M-120.955 719.947V760M-120.955 719.947H-80.9091M-161 719.947V760H-120.955M-120.955 760H-80.9091M-80.9091 -1V39.0526M-80.9091 -1H-40.8636M-80.9091 39.0526V79.1053M-80.9091 39.0526H-40.8636M-80.9091 79.1053V119.158M-80.9091 79.1053H-40.8636M-80.9091 119.158V159.211M-80.9091 119.158H-40.8636M-80.9091 159.211V199.263M-80.9091 159.211H-40.8636M-80.9091 199.263V239.316M-80.9091 199.263H-40.8636M-80.9091 239.316V279.368M-80.9091 239.316H-40.8636M-80.9091 279.368V319.421M-80.9091 279.368H-40.8636M-80.9091 319.421V359.474M-80.9091 319.421H-40.8636M-80.9091 359.474V399.526M-80.9091 359.474H-40.8636M-80.9091 399.526V439.579M-80.9091 399.526H-40.8636M-80.9091 439.579V479.632M-80.9091 439.579H-40.8636M-80.9091 479.632V519.684M-80.9091 479.632H-40.8636M-80.9091 519.684V559.737M-80.9091 519.684H-40.8636M-80.9091 559.737V599.789M-80.9091 559.737H-40.8636M-80.9091 599.789V639.842M-80.9091 599.789H-40.8636M-80.9091 639.842V679.895M-80.9091 639.842H-40.8636M-80.9091 679.895V719.947M-80.9091 679.895H-40.8636M-80.9091 719.947V760M-80.9091 719.947H-40.8636M-80.9091 760H-40.8636M-40.8636 -1V39.0526M-40.8636 -1H-0.818172M-40.8636 39.0526V79.1053M-40.8636 39.0526H-0.818172M-40.8636 79.1053V119.158M-40.8636 79.1053H-0.818172M-40.8636 119.158V159.211M-40.8636 119.158H-0.818172M-40.8636 159.211V199.263M-40.8636 159.211H-0.818172M-40.8636 199.263V239.316M-40.8636 199.263H-0.818172M-40.8636 239.316V279.368M-40.8636 239.316H-0.818172M-40.8636 279.368V319.421M-40.8636 279.368H-0.818172M-40.8636 319.421V359.474M-40.8636 319.421H-0.818172M-40.8636 359.474V399.526M-40.8636 359.474H-0.818172M-40.8636 399.526V439.579M-40.8636 399.526H-0.818172M-40.8636 439.579V479.632M-40.8636 439.579H-0.818172M-40.8636 479.632V519.684M-40.8636 479.632H-0.818172M-40.8636 519.684V559.737M-40.8636 519.684H-0.818172M-40.8636 559.737V599.789M-40.8636 559.737H-0.818172M-40.8636 599.789V639.842M-40.8636 599.789H-0.818172M-40.8636 639.842V679.895M-40.8636 639.842H-0.818172M-40.8636 679.895V719.947M-40.8636 679.895H-0.818172M-40.8636 719.947V760M-40.8636 719.947H-0.818172M-40.8636 760H-0.818172M-0.818172 -1V39.0526M-0.818172 -1H39.2273M-0.818172 39.0526V79.1053M-0.818172 39.0526H39.2273M-0.818172 79.1053V119.158M-0.818172 79.1053H39.2273M-0.818172 119.158V159.211M-0.818172 119.158H39.2273M-0.818172 159.211V199.263M-0.818172 159.211H39.2273M-0.818172 199.263V239.316M-0.818172 199.263H39.2273M-0.818172 239.316V279.368M-0.818172 239.316H39.2273M-0.818172 279.368V319.421M-0.818172 279.368H39.2273M-0.818172 319.421V359.474M-0.818172 319.421H39.2273M-0.818172 359.474V399.526M-0.818172 359.474H39.2273M-0.818172 399.526V439.579M-0.818172 399.526H39.2273M-0.818172 439.579V479.632M-0.818172 439.579H39.2273M-0.818172 479.632V519.684M-0.818172 479.632H39.2273M-0.818172 519.684V559.737M-0.818172 519.684H39.2273M-0.818172 559.737V599.789M-0.818172 559.737H39.2273M-0.818172 599.789V639.842M-0.818172 599.789H39.2273M-0.818172 639.842V679.895M-0.818172 639.842H39.2273M-0.818172 679.895V719.947M-0.818172 679.895H39.2273M-0.818172 719.947V760M-0.818172 719.947H39.2273M-0.818172 760H39.2273M39.2273 -1V39.0526M39.2273 -1H79.2727M39.2273 39.0526V79.1053M39.2273 39.0526H79.2727M39.2273 79.1053V119.158M39.2273 79.1053H79.2727M39.2273 119.158V159.211M39.2273 119.158H79.2727M39.2273 159.211V199.263M39.2273 159.211H79.2727M39.2273 199.263V239.316M39.2273 199.263H79.2727M39.2273 239.316V279.368M39.2273 239.316H79.2727M39.2273 279.368V319.421M39.2273 279.368H79.2727M39.2273 319.421V359.474M39.2273 319.421H79.2727M39.2273 359.474V399.526M39.2273 359.474H79.2727M39.2273 399.526V439.579M39.2273 399.526H79.2727M39.2273 439.579V479.632M39.2273 439.579H79.2727M39.2273 479.632V519.684M39.2273 479.632H79.2727M39.2273 519.684V559.737M39.2273 519.684H79.2727M39.2273 559.737V599.789M39.2273 559.737H79.2727M39.2273 599.789V639.842M39.2273 599.789H79.2727M39.2273 639.842V679.895M39.2273 639.842H79.2727M39.2273 679.895V719.947M39.2273 679.895H79.2727M39.2273 719.947V760M39.2273 719.947H79.2727M39.2273 760H79.2727M79.2727 -1V39.0526M79.2727 -1H119.318M79.2727 39.0526V79.1053M79.2727 39.0526H119.318M79.2727 79.1053V119.158M79.2727 79.1053H119.318M79.2727 119.158V159.211M79.2727 119.158H119.318M79.2727 159.211V199.263M79.2727 159.211H119.318M79.2727 199.263V239.316M79.2727 199.263H119.318M79.2727 239.316V279.368M79.2727 239.316H119.318M79.2727 279.368V319.421M79.2727 279.368H119.318M79.2727 319.421V359.474M79.2727 319.421H119.318M79.2727 359.474V399.526M79.2727 359.474H119.318M79.2727 399.526V439.579M79.2727 399.526H119.318M79.2727 439.579V479.632M79.2727 439.579H119.318M79.2727 479.632V519.684M79.2727 479.632H119.318M79.2727 519.684V559.737M79.2727 519.684H119.318M79.2727 559.737V599.789M79.2727 559.737H119.318M79.2727 599.789V639.842M79.2727 599.789H119.318M79.2727 639.842V679.895M79.2727 639.842H119.318M79.2727 679.895V719.947M79.2727 679.895H119.318M79.2727 719.947V760M79.2727 719.947H119.318M79.2727 760H119.318M119.318 -1V39.0526M119.318 -1H159.364M119.318 39.0526V79.1053M119.318 39.0526H159.364M119.318 79.1053V119.158M119.318 79.1053H159.364M119.318 119.158V159.211M119.318 119.158H159.364M119.318 159.211V199.263M119.318 159.211H159.364M119.318 199.263V239.316M119.318 199.263H159.364M119.318 239.316V279.368M119.318 239.316H159.364M119.318 279.368V319.421M119.318 279.368H159.364M119.318 319.421V359.474M119.318 319.421H159.364M119.318 359.474V399.526M119.318 359.474H159.364M119.318 399.526V439.579M119.318 399.526H159.364M119.318 439.579V479.632M119.318 439.579H159.364M119.318 479.632V519.684M119.318 479.632H159.364M119.318 519.684V559.737M119.318 519.684H159.364M119.318 559.737V599.789M119.318 559.737H159.364M119.318 599.789V639.842M119.318 599.789H159.364M119.318 639.842V679.895M119.318 639.842H159.364M119.318 679.895V719.947M119.318 679.895H159.364M119.318 719.947V760M119.318 719.947H159.364M119.318 760H159.364M159.364 -1V39.0526M159.364 -1H199.409M159.364 39.0526V79.1053M159.364 39.0526H199.409M159.364 79.1053V119.158M159.364 79.1053H199.409M159.364 119.158V159.211M159.364 119.158H199.409M159.364 159.211V199.263M159.364 159.211H199.409M159.364 199.263V239.316M159.364 199.263H199.409M159.364 239.316V279.368M159.364 239.316H199.409M159.364 279.368V319.421M159.364 279.368H199.409M159.364 319.421V359.474M159.364 319.421H199.409M159.364 359.474V399.526M159.364 359.474H199.409M159.364 399.526V439.579M159.364 399.526H199.409M159.364 439.579V479.632M159.364 439.579H199.409M159.364 479.632V519.684M159.364 479.632H199.409M159.364 519.684V559.737M159.364 519.684H199.409M159.364 559.737V599.789M159.364 559.737H199.409M159.364 599.789V639.842M159.364 599.789H199.409M159.364 639.842V679.895M159.364 639.842H199.409M159.364 679.895V719.947M159.364 679.895H199.409M159.364 719.947V760M159.364 719.947H199.409M159.364 760H199.409M199.409 -1V39.0526M199.409 -1H239.455M199.409 39.0526V79.1053M199.409 39.0526H239.455M199.409 79.1053V119.158M199.409 79.1053H239.455M199.409 119.158V159.211M199.409 119.158H239.455M199.409 159.211V199.263M199.409 159.211H239.455M199.409 199.263V239.316M199.409 199.263H239.455M199.409 239.316V279.368M199.409 239.316H239.455M199.409 279.368V319.421M199.409 279.368H239.455M199.409 319.421V359.474M199.409 319.421H239.455M199.409 359.474V399.526M199.409 359.474H239.455M199.409 399.526V439.579M199.409 399.526H239.455M199.409 439.579V479.632M199.409 439.579H239.455M199.409 479.632V519.684M199.409 479.632H239.455M199.409 519.684V559.737M199.409 519.684H239.455M199.409 559.737V599.789M199.409 559.737H239.455M199.409 599.789V639.842M199.409 599.789H239.455M199.409 639.842V679.895M199.409 639.842H239.455M199.409 679.895V719.947M199.409 679.895H239.455M199.409 719.947V760M199.409 719.947H239.455M199.409 760H239.455M239.455 -1V39.0526M239.455 -1H279.5M239.455 39.0526V79.1053M239.455 39.0526H279.5M239.455 79.1053V119.158M239.455 79.1053H279.5M239.455 119.158V159.211M239.455 119.158H279.5M239.455 159.211V199.263M239.455 159.211H279.5M239.455 199.263V239.316M239.455 199.263H279.5M239.455 239.316V279.368M239.455 239.316H279.5M239.455 279.368V319.421M239.455 279.368H279.5M239.455 319.421V359.474M239.455 319.421H279.5M239.455 359.474V399.526M239.455 359.474H279.5M239.455 399.526V439.579M239.455 399.526H279.5M239.455 439.579V479.632M239.455 439.579H279.5M239.455 479.632V519.684M239.455 479.632H279.5M239.455 519.684V559.737M239.455 519.684H279.5M239.455 559.737V599.789M239.455 559.737H279.5M239.455 599.789V639.842M239.455 599.789H279.5M239.455 639.842V679.895M239.455 639.842H279.5M239.455 679.895V719.947M239.455 679.895H279.5M239.455 719.947V760M239.455 719.947H279.5M239.455 760H279.5M279.5 -1V39.0526M279.5 -1H319.545M279.5 39.0526V79.1053M279.5 39.0526H319.545M279.5 79.1053V119.158M279.5 79.1053H319.545M279.5 119.158V159.211M279.5 119.158H319.545M279.5 159.211V199.263M279.5 159.211H319.545M279.5 199.263V239.316M279.5 199.263H319.545M279.5 239.316V279.368M279.5 239.316H319.545M279.5 279.368V319.421M279.5 279.368H319.545M279.5 319.421V359.474M279.5 319.421H319.545M279.5 359.474V399.526M279.5 359.474H319.545M279.5 399.526V439.579M279.5 399.526H319.545M279.5 439.579V479.632M279.5 439.579H319.545M279.5 479.632V519.684M279.5 479.632H319.545M279.5 519.684V559.737M279.5 519.684H319.545M279.5 559.737V599.789M279.5 559.737H319.545M279.5 599.789V639.842M279.5 599.789H319.545M279.5 639.842V679.895M279.5 639.842H319.545M279.5 679.895V719.947M279.5 679.895H319.545M279.5 719.947V760M279.5 719.947H319.545M279.5 760H319.545M319.545 -1V39.0526M319.545 -1H359.591M319.545 39.0526V79.1053M319.545 39.0526H359.591M319.545 79.1053V119.158M319.545 79.1053H359.591M319.545 119.158V159.211M319.545 119.158H359.591M319.545 159.211V199.263M319.545 159.211H359.591M319.545 199.263V239.316M319.545 199.263H359.591M319.545 239.316V279.368M319.545 239.316H359.591M319.545 279.368V319.421M319.545 279.368H359.591M319.545 319.421V359.474M319.545 319.421H359.591M319.545 359.474V399.526M319.545 359.474H359.591M319.545 399.526V439.579M319.545 399.526H359.591M319.545 439.579V479.632M319.545 439.579H359.591M319.545 479.632V519.684M319.545 479.632H359.591M319.545 519.684V559.737M319.545 519.684H359.591M319.545 559.737V599.789M319.545 559.737H359.591M319.545 599.789V639.842M319.545 599.789H359.591M319.545 639.842V679.895M319.545 639.842H359.591M319.545 679.895V719.947M319.545 679.895H359.591M319.545 719.947V760M319.545 719.947H359.591M319.545 760H359.591M359.591 -1V39.0526M359.591 -1H399.636M359.591 39.0526V79.1053M359.591 39.0526H399.636M359.591 79.1053V119.158M359.591 79.1053H399.636M359.591 119.158V159.211M359.591 119.158H399.636M359.591 159.211V199.263M359.591 159.211H399.636M359.591 199.263V239.316M359.591 199.263H399.636M359.591 239.316V279.368M359.591 239.316H399.636M359.591 279.368V319.421M359.591 279.368H399.636M359.591 319.421V359.474M359.591 319.421H399.636M359.591 359.474V399.526M359.591 359.474H399.636M359.591 399.526V439.579M359.591 399.526H399.636M359.591 439.579V479.632M359.591 439.579H399.636M359.591 479.632V519.684M359.591 479.632H399.636M359.591 519.684V559.737M359.591 519.684H399.636M359.591 559.737V599.789M359.591 559.737H399.636M359.591 599.789V639.842M359.591 599.789H399.636M359.591 639.842V679.895M359.591 639.842H399.636M359.591 679.895V719.947M359.591 679.895H399.636M359.591 719.947V760M359.591 719.947H399.636M359.591 760H399.636M399.636 -1V39.0526M399.636 -1H439.682M399.636 39.0526V79.1053M399.636 39.0526H439.682M399.636 79.1053V119.158M399.636 79.1053H439.682M399.636 119.158V159.211M399.636 119.158H439.682M399.636 159.211V199.263M399.636 159.211H439.682M399.636 199.263V239.316M399.636 199.263H439.682M399.636 239.316V279.368M399.636 239.316H439.682M399.636 279.368V319.421M399.636 279.368H439.682M399.636 319.421V359.474M399.636 319.421H439.682M399.636 359.474V399.526M399.636 359.474H439.682M399.636 399.526V439.579M399.636 399.526H439.682M399.636 439.579V479.632M399.636 439.579H439.682M399.636 479.632V519.684M399.636 479.632H439.682M399.636 519.684V559.737M399.636 519.684H439.682M399.636 559.737V599.789M399.636 559.737H439.682M399.636 599.789V639.842M399.636 599.789H439.682M399.636 639.842V679.895M399.636 639.842H439.682M399.636 679.895V719.947M399.636 679.895H439.682M399.636 719.947V760M399.636 719.947H439.682M399.636 760H439.682M439.682 -1V39.0526M439.682 -1H479.727M439.682 39.0526V79.1053M439.682 39.0526H479.727M439.682 79.1053V119.158M439.682 79.1053H479.727M439.682 119.158V159.211M439.682 119.158H479.727M439.682 159.211V199.263M439.682 159.211H479.727M439.682 199.263V239.316M439.682 199.263H479.727M439.682 239.316V279.368M439.682 239.316H479.727M439.682 279.368V319.421M439.682 279.368H479.727M439.682 319.421V359.474M439.682 319.421H479.727M439.682 359.474V399.526M439.682 359.474H479.727M439.682 399.526V439.579M439.682 399.526H479.727M439.682 439.579V479.632M439.682 439.579H479.727M439.682 479.632V519.684M439.682 479.632H479.727M439.682 519.684V559.737M439.682 519.684H479.727M439.682 559.737V599.789M439.682 559.737H479.727M439.682 599.789V639.842M439.682 599.789H479.727M439.682 639.842V679.895M439.682 639.842H479.727M439.682 679.895V719.947M439.682 679.895H479.727M439.682 719.947V760M439.682 719.947H479.727M439.682 760H479.727M479.727 -1V39.0526M479.727 -1H519.773M479.727 39.0526V79.1053M479.727 39.0526H519.773M479.727 79.1053V119.158M479.727 79.1053H519.773M479.727 119.158V159.211M479.727 119.158H519.773M479.727 159.211V199.263M479.727 159.211H519.773M479.727 199.263V239.316M479.727 199.263H519.773M479.727 239.316V279.368M479.727 239.316H519.773M479.727 279.368V319.421M479.727 279.368H519.773M479.727 319.421V359.474M479.727 319.421H519.773M479.727 359.474V399.526M479.727 359.474H519.773M479.727 399.526V439.579M479.727 399.526H519.773M479.727 439.579V479.632M479.727 439.579H519.773M479.727 479.632V519.684M479.727 479.632H519.773M479.727 519.684V559.737M479.727 519.684H519.773M479.727 559.737V599.789M479.727 559.737H519.773M479.727 599.789V639.842M479.727 599.789H519.773M479.727 639.842V679.895M479.727 639.842H519.773M479.727 679.895V719.947M479.727 679.895H519.773M479.727 719.947V760M479.727 719.947H519.773M479.727 760H519.773M519.773 -1V39.0526M519.773 -1H559.818M519.773 39.0526V79.1053M519.773 39.0526H559.818M519.773 79.1053V119.158M519.773 79.1053H559.818M519.773 119.158V159.211M519.773 119.158H559.818M519.773 159.211V199.263M519.773 159.211H559.818M519.773 199.263V239.316M519.773 199.263H559.818M519.773 239.316V279.368M519.773 239.316H559.818M519.773 279.368V319.421M519.773 279.368H559.818M519.773 319.421V359.474M519.773 319.421H559.818M519.773 359.474V399.526M519.773 359.474H559.818M519.773 399.526V439.579M519.773 399.526H559.818M519.773 439.579V479.632M519.773 439.579H559.818M519.773 479.632V519.684M519.773 479.632H559.818M519.773 519.684V559.737M519.773 519.684H559.818M519.773 559.737V599.789M519.773 559.737H559.818M519.773 599.789V639.842M519.773 599.789H559.818M519.773 639.842V679.895M519.773 639.842H559.818M519.773 679.895V719.947M519.773 679.895H559.818M519.773 719.947V760M519.773 719.947H559.818M519.773 760H559.818M559.818 -1V39.0526M559.818 -1H599.864M559.818 39.0526V79.1053M559.818 39.0526H599.864M559.818 79.1053V119.158M559.818 79.1053H599.864M559.818 119.158V159.211M559.818 119.158H599.864M559.818 159.211V199.263M559.818 159.211H599.864M559.818 199.263V239.316M559.818 199.263H599.864M559.818 239.316V279.368M559.818 239.316H599.864M559.818 279.368V319.421M559.818 279.368H599.864M559.818 319.421V359.474M559.818 319.421H599.864M559.818 359.474V399.526M559.818 359.474H599.864M559.818 399.526V439.579M559.818 399.526H599.864M559.818 439.579V479.632M559.818 439.579H599.864M559.818 479.632V519.684M559.818 479.632H599.864M559.818 519.684V559.737M559.818 519.684H599.864M559.818 559.737V599.789M559.818 559.737H599.864M559.818 599.789V639.842M559.818 599.789H599.864M559.818 639.842V679.895M559.818 639.842H599.864M559.818 679.895V719.947M559.818 679.895H599.864M559.818 719.947V760M559.818 719.947H599.864M559.818 760H599.864M599.864 -1V39.0526M599.864 -1H639.909M599.864 39.0526V79.1053M599.864 39.0526H639.909M599.864 79.1053V119.158M599.864 79.1053H639.909M599.864 119.158V159.211M599.864 119.158H639.909M599.864 159.211V199.263M599.864 159.211H639.909M599.864 199.263V239.316M599.864 199.263H639.909M599.864 239.316V279.368M599.864 239.316H639.909M599.864 279.368V319.421M599.864 279.368H639.909M599.864 319.421V359.474M599.864 319.421H639.909M599.864 359.474V399.526M599.864 359.474H639.909M599.864 399.526V439.579M599.864 399.526H639.909M599.864 439.579V479.632M599.864 439.579H639.909M599.864 479.632V519.684M599.864 479.632H639.909M599.864 519.684V559.737M599.864 519.684H639.909M599.864 559.737V599.789M599.864 559.737H639.909M599.864 599.789V639.842M599.864 599.789H639.909M599.864 639.842V679.895M599.864 639.842H639.909M599.864 679.895V719.947M599.864 679.895H639.909M599.864 719.947V760M599.864 719.947H639.909M599.864 760H639.909M639.909 -1V39.0526M639.909 -1H679.955M639.909 39.0526V79.1053M639.909 39.0526H679.955M639.909 79.1053V119.158M639.909 79.1053H679.955M639.909 119.158V159.211M639.909 119.158H679.955M639.909 159.211V199.263M639.909 159.211H679.955M639.909 199.263V239.316M639.909 199.263H679.955M639.909 239.316V279.368M639.909 239.316H679.955M639.909 279.368V319.421M639.909 279.368H679.955M639.909 319.421V359.474M639.909 319.421H679.955M639.909 359.474V399.526M639.909 359.474H679.955M639.909 399.526V439.579M639.909 399.526H679.955M639.909 439.579V479.632M639.909 439.579H679.955M639.909 479.632V519.684M639.909 479.632H679.955M639.909 519.684V559.737M639.909 519.684H679.955M639.909 559.737V599.789M639.909 559.737H679.955M639.909 599.789V639.842M639.909 599.789H679.955M639.909 639.842V679.895M639.909 639.842H679.955M639.909 679.895V719.947M639.909 679.895H679.955M639.909 719.947V760M639.909 719.947H679.955M639.909 760H679.955M679.955 -1V39.0526M679.955 -1H720M679.955 39.0526V79.1053M679.955 39.0526H720M679.955 79.1053V119.158M679.955 79.1053H720M679.955 119.158V159.211M679.955 119.158H720M679.955 159.211V199.263M679.955 159.211H720M679.955 199.263V239.316M679.955 199.263H720M679.955 239.316V279.368M679.955 239.316H720M679.955 279.368V319.421M679.955 279.368H720M679.955 319.421V359.474M679.955 319.421H720M679.955 359.474V399.526M679.955 359.474H720M679.955 399.526V439.579M679.955 399.526H720M679.955 439.579V479.632M679.955 439.579H720M679.955 479.632V519.684M679.955 479.632H720M679.955 519.684V559.737M679.955 519.684H720M679.955 559.737V599.789M679.955 559.737H720M679.955 599.789V639.842M679.955 599.789H720M679.955 639.842V679.895M679.955 639.842H720M679.955 679.895V719.947M679.955 679.895H720M679.955 719.947V760M679.955 719.947H720M679.955 760H720M720 -1V39.0526M720 -1H760.046M720 39.0526V79.1053M720 39.0526H760.046M720 79.1053V119.158M720 79.1053H760.046M720 119.158V159.211M720 119.158H760.046M720 159.211V199.263M720 159.211H760.046M720 199.263V239.316M720 199.263H760.046M720 239.316V279.368M720 239.316H760.046M720 279.368V319.421M720 279.368H760.046M720 319.421V359.474M720 319.421H760.046M720 359.474V399.526M720 359.474H760.046M720 399.526V439.579M720 399.526H760.046M720 439.579V479.632M720 439.579H760.046M720 479.632V519.684M720 479.632H760.046M720 519.684V559.737M720 519.684H760.046M720 559.737V599.789M720 559.737H760.046M720 599.789V639.842M720 599.789H760.046M720 639.842V679.895M720 639.842H760.046M720 679.895V719.947M720 679.895H760.046M720 719.947V760M720 719.947H760.046M720 760H760.046M760.046 -1V39.0526M760.046 -1H800.091M760.046 39.0526V79.1053M760.046 39.0526H800.091M760.046 79.1053V119.158M760.046 79.1053H800.091M760.046 119.158V159.211M760.046 119.158H800.091M760.046 159.211V199.263M760.046 159.211H800.091M760.046 199.263V239.316M760.046 199.263H800.091M760.046 239.316V279.368M760.046 239.316H800.091M760.046 279.368V319.421M760.046 279.368H800.091M760.046 319.421V359.474M760.046 319.421H800.091M760.046 359.474V399.526M760.046 359.474H800.091M760.046 399.526V439.579M760.046 399.526H800.091M760.046 439.579V479.632M760.046 439.579H800.091M760.046 479.632V519.684M760.046 479.632H800.091M760.046 519.684V559.737M760.046 519.684H800.091M760.046 559.737V599.789M760.046 559.737H800.091M760.046 599.789V639.842M760.046 599.789H800.091M760.046 639.842V679.895M760.046 639.842H800.091M760.046 679.895V719.947M760.046 679.895H800.091M760.046 719.947V760M760.046 719.947H800.091M760.046 760H800.091M800.091 -1V39.0526M800.091 -1H840.136M800.091 39.0526V79.1053M800.091 39.0526H840.136M800.091 79.1053V119.158M800.091 79.1053H840.136M800.091 119.158V159.211M800.091 119.158H840.136M800.091 159.211V199.263M800.091 159.211H840.136M800.091 199.263V239.316M800.091 199.263H840.136M800.091 239.316V279.368M800.091 239.316H840.136M800.091 279.368V319.421M800.091 279.368H840.136M800.091 319.421V359.474M800.091 319.421H840.136M800.091 359.474V399.526M800.091 359.474H840.136M800.091 399.526V439.579M800.091 399.526H840.136M800.091 439.579V479.632M800.091 439.579H840.136M800.091 479.632V519.684M800.091 479.632H840.136M800.091 519.684V559.737M800.091 519.684H840.136M800.091 559.737V599.789M800.091 559.737H840.136M800.091 599.789V639.842M800.091 599.789H840.136M800.091 639.842V679.895M800.091 639.842H840.136M800.091 679.895V719.947M800.091 679.895H840.136M800.091 719.947V760M800.091 719.947H840.136M800.091 760H840.136M840.136 -1V39.0526M840.136 -1H880.182M840.136 39.0526V79.1053M840.136 39.0526H880.182M840.136 79.1053V119.158M840.136 79.1053H880.182M840.136 119.158V159.211M840.136 119.158H880.182M840.136 159.211V199.263M840.136 159.211H880.182M840.136 199.263V239.316M840.136 199.263H880.182M840.136 239.316V279.368M840.136 239.316H880.182M840.136 279.368V319.421M840.136 279.368H880.182M840.136 319.421V359.474M840.136 319.421H880.182M840.136 359.474V399.526M840.136 359.474H880.182M840.136 399.526V439.579M840.136 399.526H880.182M840.136 439.579V479.632M840.136 439.579H880.182M840.136 479.632V519.684M840.136 479.632H880.182M840.136 519.684V559.737M840.136 519.684H880.182M840.136 559.737V599.789M840.136 559.737H880.182M840.136 599.789V639.842M840.136 599.789H880.182M840.136 639.842V679.895M840.136 639.842H880.182M840.136 679.895V719.947M840.136 679.895H880.182M840.136 719.947V760M840.136 719.947H880.182M840.136 760H880.182M880.182 -1V39.0526M880.182 -1H920.227M880.182 39.0526V79.1053M880.182 39.0526H920.227M880.182 79.1053V119.158M880.182 79.1053H920.227M880.182 119.158V159.211M880.182 119.158H920.227M880.182 159.211V199.263M880.182 159.211H920.227M880.182 199.263V239.316M880.182 199.263H920.227M880.182 239.316V279.368M880.182 239.316H920.227M880.182 279.368V319.421M880.182 279.368H920.227M880.182 319.421V359.474M880.182 319.421H920.227M880.182 359.474V399.526M880.182 359.474H920.227M880.182 399.526V439.579M880.182 399.526H920.227M880.182 439.579V479.632M880.182 439.579H920.227M880.182 479.632V519.684M880.182 479.632H920.227M880.182 519.684V559.737M880.182 519.684H920.227M880.182 559.737V599.789M880.182 559.737H920.227M880.182 599.789V639.842M880.182 599.789H920.227M880.182 639.842V679.895M880.182 639.842H920.227M880.182 679.895V719.947M880.182 679.895H920.227M880.182 719.947V760M880.182 719.947H920.227M880.182 760H920.227M920.227 -1V39.0526M920.227 -1H960.273M920.227 39.0526V79.1053M920.227 39.0526H960.273M920.227 79.1053V119.158M920.227 79.1053H960.273M920.227 119.158V159.211M920.227 119.158H960.273M920.227 159.211V199.263M920.227 159.211H960.273M920.227 199.263V239.316M920.227 199.263H960.273M920.227 239.316V279.368M920.227 239.316H960.273M920.227 279.368V319.421M920.227 279.368H960.273M920.227 319.421V359.474M920.227 319.421H960.273M920.227 359.474V399.526M920.227 359.474H960.273M920.227 399.526V439.579M920.227 399.526H960.273M920.227 439.579V479.632M920.227 439.579H960.273M920.227 479.632V519.684M920.227 479.632H960.273M920.227 519.684V559.737M920.227 519.684H960.273M920.227 559.737V599.789M920.227 559.737H960.273M920.227 599.789V639.842M920.227 599.789H960.273M920.227 639.842V679.895M920.227 639.842H960.273M920.227 679.895V719.947M920.227 679.895H960.273M920.227 719.947V760M920.227 719.947H960.273M920.227 760H960.273M960.273 -1V39.0526M960.273 -1H1000.32M960.273 39.0526V79.1053M960.273 39.0526H1000.32M960.273 79.1053V119.158M960.273 79.1053H1000.32M960.273 119.158V159.211M960.273 119.158H1000.32M960.273 159.211V199.263M960.273 159.211H1000.32M960.273 199.263V239.316M960.273 199.263H1000.32M960.273 239.316V279.368M960.273 239.316H1000.32M960.273 279.368V319.421M960.273 279.368H1000.32M960.273 319.421V359.474M960.273 319.421H1000.32M960.273 359.474V399.526M960.273 359.474H1000.32M960.273 399.526V439.579M960.273 399.526H1000.32M960.273 439.579V479.632M960.273 439.579H1000.32M960.273 479.632V519.684M960.273 479.632H1000.32M960.273 519.684V559.737M960.273 519.684H1000.32M960.273 559.737V599.789M960.273 559.737H1000.32M960.273 599.789V639.842M960.273 599.789H1000.32M960.273 639.842V679.895M960.273 639.842H1000.32M960.273 679.895V719.947M960.273 679.895H1000.32M960.273 719.947V760M960.273 719.947H1000.32M960.273 760H1000.32M1000.32 -1V39.0526M1000.32 -1H1040.36M1000.32 39.0526V79.1053M1000.32 39.0526H1040.36M1000.32 79.1053V119.158M1000.32 79.1053H1040.36M1000.32 119.158V159.211M1000.32 119.158H1040.36M1000.32 159.211V199.263M1000.32 159.211H1040.36M1000.32 199.263V239.316M1000.32 199.263H1040.36M1000.32 239.316V279.368M1000.32 239.316H1040.36M1000.32 279.368V319.421M1000.32 279.368H1040.36M1000.32 319.421V359.474M1000.32 319.421H1040.36M1000.32 359.474V399.526M1000.32 359.474H1040.36M1000.32 399.526V439.579M1000.32 399.526H1040.36M1000.32 439.579V479.632M1000.32 439.579H1040.36M1000.32 479.632V519.684M1000.32 479.632H1040.36M1000.32 519.684V559.737M1000.32 519.684H1040.36M1000.32 559.737V599.789M1000.32 559.737H1040.36M1000.32 599.789V639.842M1000.32 599.789H1040.36M1000.32 639.842V679.895M1000.32 639.842H1040.36M1000.32 679.895V719.947M1000.32 679.895H1040.36M1000.32 719.947V760M1000.32 719.947H1040.36M1000.32 760H1040.36M1040.36 -1V39.0526M1040.36 -1H1080.41M1040.36 39.0526V79.1053M1040.36 39.0526H1080.41M1040.36 79.1053V119.158M1040.36 79.1053H1080.41M1040.36 119.158V159.211M1040.36 119.158H1080.41M1040.36 159.211V199.263M1040.36 159.211H1080.41M1040.36 199.263V239.316M1040.36 199.263H1080.41M1040.36 239.316V279.368M1040.36 239.316H1080.41M1040.36 279.368V319.421M1040.36 279.368H1080.41M1040.36 319.421V359.474M1040.36 319.421H1080.41M1040.36 359.474V399.526M1040.36 359.474H1080.41M1040.36 399.526V439.579M1040.36 399.526H1080.41M1040.36 439.579V479.632M1040.36 439.579H1080.41M1040.36 479.632V519.684M1040.36 479.632H1080.41M1040.36 519.684V559.737M1040.36 519.684H1080.41M1040.36 559.737V599.789M1040.36 559.737H1080.41M1040.36 599.789V639.842M1040.36 599.789H1080.41M1040.36 639.842V679.895M1040.36 639.842H1080.41M1040.36 679.895V719.947M1040.36 679.895H1080.41M1040.36 719.947V760M1040.36 719.947H1080.41M1040.36 760H1080.41M1080.41 -1V39.0526M1080.41 -1H1120.45M1080.41 39.0526V79.1053M1080.41 39.0526H1120.45M1080.41 79.1053V119.158M1080.41 79.1053H1120.45M1080.41 119.158V159.211M1080.41 119.158H1120.45M1080.41 159.211V199.263M1080.41 159.211H1120.45M1080.41 199.263V239.316M1080.41 199.263H1120.45M1080.41 239.316V279.368M1080.41 239.316H1120.45M1080.41 279.368V319.421M1080.41 279.368H1120.45M1080.41 319.421V359.474M1080.41 319.421H1120.45M1080.41 359.474V399.526M1080.41 359.474H1120.45M1080.41 399.526V439.579M1080.41 399.526H1120.45M1080.41 439.579V479.632M1080.41 439.579H1120.45M1080.41 479.632V519.684M1080.41 479.632H1120.45M1080.41 519.684V559.737M1080.41 519.684H1120.45M1080.41 559.737V599.789M1080.41 559.737H1120.45M1080.41 599.789V639.842M1080.41 599.789H1120.45M1080.41 639.842V679.895M1080.41 639.842H1120.45M1080.41 679.895V719.947M1080.41 679.895H1120.45M1080.41 719.947V760M1080.41 719.947H1120.45M1080.41 760H1120.45M1120.45 -1V39.0526M1120.45 -1H1160.5M1120.45 39.0526V79.1053M1120.45 39.0526H1160.5M1120.45 79.1053V119.158M1120.45 79.1053H1160.5M1120.45 119.158V159.211M1120.45 119.158H1160.5M1120.45 159.211V199.263M1120.45 159.211H1160.5M1120.45 199.263V239.316M1120.45 199.263H1160.5M1120.45 239.316V279.368M1120.45 239.316H1160.5M1120.45 279.368V319.421M1120.45 279.368H1160.5M1120.45 319.421V359.474M1120.45 319.421H1160.5M1120.45 359.474V399.526M1120.45 359.474H1160.5M1120.45 399.526V439.579M1120.45 399.526H1160.5M1120.45 439.579V479.632M1120.45 439.579H1160.5M1120.45 479.632V519.684M1120.45 479.632H1160.5M1120.45 519.684V559.737M1120.45 519.684H1160.5M1120.45 559.737V599.789M1120.45 559.737H1160.5M1120.45 599.789V639.842M1120.45 599.789H1160.5M1120.45 639.842V679.895M1120.45 639.842H1160.5M1120.45 679.895V719.947M1120.45 679.895H1160.5M1120.45 719.947V760M1120.45 719.947H1160.5M1120.45 760H1160.5M1160.5 -1V39.0526M1160.5 -1H1200.55M1160.5 39.0526V79.1053M1160.5 39.0526H1200.55M1160.5 79.1053V119.158M1160.5 79.1053H1200.55M1160.5 119.158V159.211M1160.5 119.158H1200.55M1160.5 159.211V199.263M1160.5 159.211H1200.55M1160.5 199.263V239.316M1160.5 199.263H1200.55M1160.5 239.316V279.368M1160.5 239.316H1200.55M1160.5 279.368V319.421M1160.5 279.368H1200.55M1160.5 319.421V359.474M1160.5 319.421H1200.55M1160.5 359.474V399.526M1160.5 359.474H1200.55M1160.5 399.526V439.579M1160.5 399.526H1200.55M1160.5 439.579V479.632M1160.5 439.579H1200.55M1160.5 479.632V519.684M1160.5 479.632H1200.55M1160.5 519.684V559.737M1160.5 519.684H1200.55M1160.5 559.737V599.789M1160.5 559.737H1200.55M1160.5 599.789V639.842M1160.5 599.789H1200.55M1160.5 639.842V679.895M1160.5 639.842H1200.55M1160.5 679.895V719.947M1160.5 679.895H1200.55M1160.5 719.947V760M1160.5 719.947H1200.55M1160.5 760H1200.55M1200.55 -1V39.0526M1200.55 -1H1240.59M1200.55 39.0526V79.1053M1200.55 39.0526H1240.59M1200.55 79.1053V119.158M1200.55 79.1053H1240.59M1200.55 119.158V159.211M1200.55 119.158H1240.59M1200.55 159.211V199.263M1200.55 159.211H1240.59M1200.55 199.263V239.316M1200.55 199.263H1240.59M1200.55 239.316V279.368M1200.55 239.316H1240.59M1200.55 279.368V319.421M1200.55 279.368H1240.59M1200.55 319.421V359.474M1200.55 319.421H1240.59M1200.55 359.474V399.526M1200.55 359.474H1240.59M1200.55 399.526V439.579M1200.55 399.526H1240.59M1200.55 439.579V479.632M1200.55 439.579H1240.59M1200.55 479.632V519.684M1200.55 479.632H1240.59M1200.55 519.684V559.737M1200.55 519.684H1240.59M1200.55 559.737V599.789M1200.55 559.737H1240.59M1200.55 599.789V639.842M1200.55 599.789H1240.59M1200.55 639.842V679.895M1200.55 639.842H1240.59M1200.55 679.895V719.947M1200.55 679.895H1240.59M1200.55 719.947V760M1200.55 719.947H1240.59M1200.55 760H1240.59M1240.59 -1V39.0526M1240.59 -1H1280.64M1240.59 39.0526V79.1053M1240.59 39.0526H1280.64M1240.59 79.1053V119.158M1240.59 79.1053H1280.64M1240.59 119.158V159.211M1240.59 119.158H1280.64M1240.59 159.211V199.263M1240.59 159.211H1280.64M1240.59 199.263V239.316M1240.59 199.263H1280.64M1240.59 239.316V279.368M1240.59 239.316H1280.64M1240.59 279.368V319.421M1240.59 279.368H1280.64M1240.59 319.421V359.474M1240.59 319.421H1280.64M1240.59 359.474V399.526M1240.59 359.474H1280.64M1240.59 399.526V439.579M1240.59 399.526H1280.64M1240.59 439.579V479.632M1240.59 439.579H1280.64M1240.59 479.632V519.684M1240.59 479.632H1280.64M1240.59 519.684V559.737M1240.59 519.684H1280.64M1240.59 559.737V599.789M1240.59 559.737H1280.64M1240.59 599.789V639.842M1240.59 599.789H1280.64M1240.59 639.842V679.895M1240.59 639.842H1280.64M1240.59 679.895V719.947M1240.59 679.895H1280.64M1240.59 719.947V760M1240.59 719.947H1280.64M1240.59 760H1280.64M1280.64 -1V39.0526M1280.64 -1H1320.68M1280.64 39.0526V79.1053M1280.64 39.0526H1320.68M1280.64 79.1053V119.158M1280.64 79.1053H1320.68M1280.64 119.158V159.211M1280.64 119.158H1320.68M1280.64 159.211V199.263M1280.64 159.211H1320.68M1280.64 199.263V239.316M1280.64 199.263H1320.68M1280.64 239.316V279.368M1280.64 239.316H1320.68M1280.64 279.368V319.421M1280.64 279.368H1320.68M1280.64 319.421V359.474M1280.64 319.421H1320.68M1280.64 359.474V399.526M1280.64 359.474H1320.68M1280.64 399.526V439.579M1280.64 399.526H1320.68M1280.64 439.579V479.632M1280.64 439.579H1320.68M1280.64 479.632V519.684M1280.64 479.632H1320.68M1280.64 519.684V559.737M1280.64 519.684H1320.68M1280.64 559.737V599.789M1280.64 559.737H1320.68M1280.64 599.789V639.842M1280.64 599.789H1320.68M1280.64 639.842V679.895M1280.64 639.842H1320.68M1280.64 679.895V719.947M1280.64 679.895H1320.68M1280.64 719.947V760M1280.64 719.947H1320.68M1280.64 760H1320.68M1320.68 -1V39.0526M1320.68 -1H1360.73M1320.68 39.0526V79.1053M1320.68 39.0526H1360.73M1320.68 79.1053V119.158M1320.68 79.1053H1360.73M1320.68 119.158V159.211M1320.68 119.158H1360.73M1320.68 159.211V199.263M1320.68 159.211H1360.73M1320.68 199.263V239.316M1320.68 199.263H1360.73M1320.68 239.316V279.368M1320.68 239.316H1360.73M1320.68 279.368V319.421M1320.68 279.368H1360.73M1320.68 319.421V359.474M1320.68 319.421H1360.73M1320.68 359.474V399.526M1320.68 359.474H1360.73M1320.68 399.526V439.579M1320.68 399.526H1360.73M1320.68 439.579V479.632M1320.68 439.579H1360.73M1320.68 479.632V519.684M1320.68 479.632H1360.73M1320.68 519.684V559.737M1320.68 519.684H1360.73M1320.68 559.737V599.789M1320.68 559.737H1360.73M1320.68 599.789V639.842M1320.68 599.789H1360.73M1320.68 639.842V679.895M1320.68 639.842H1360.73M1320.68 679.895V719.947M1320.68 679.895H1360.73M1320.68 719.947V760M1320.68 719.947H1360.73M1320.68 760H1360.73M1360.73 -1V39.0526M1360.73 -1H1400.77M1360.73 39.0526V79.1053M1360.73 39.0526H1400.77M1360.73 79.1053V119.158M1360.73 79.1053H1400.77M1360.73 119.158V159.211M1360.73 119.158H1400.77M1360.73 159.211V199.263M1360.73 159.211H1400.77M1360.73 199.263V239.316M1360.73 199.263H1400.77M1360.73 239.316V279.368M1360.73 239.316H1400.77M1360.73 279.368V319.421M1360.73 279.368H1400.77M1360.73 319.421V359.474M1360.73 319.421H1400.77M1360.73 359.474V399.526M1360.73 359.474H1400.77M1360.73 399.526V439.579M1360.73 399.526H1400.77M1360.73 439.579V479.632M1360.73 439.579H1400.77M1360.73 479.632V519.684M1360.73 479.632H1400.77M1360.73 519.684V559.737M1360.73 519.684H1400.77M1360.73 559.737V599.789M1360.73 559.737H1400.77M1360.73 599.789V639.842M1360.73 599.789H1400.77M1360.73 639.842V679.895M1360.73 639.842H1400.77M1360.73 679.895V719.947M1360.73 679.895H1400.77M1360.73 719.947V760M1360.73 719.947H1400.77M1360.73 760H1400.77M1400.77 -1V39.0526M1400.77 -1H1440.82M1400.77 39.0526V79.1053M1400.77 39.0526H1440.82M1400.77 79.1053V119.158M1400.77 79.1053H1440.82M1400.77 119.158V159.211M1400.77 119.158H1440.82M1400.77 159.211V199.263M1400.77 159.211H1440.82M1400.77 199.263V239.316M1400.77 199.263H1440.82M1400.77 239.316V279.368M1400.77 239.316H1440.82M1400.77 279.368V319.421M1400.77 279.368H1440.82M1400.77 319.421V359.474M1400.77 319.421H1440.82M1400.77 359.474V399.526M1400.77 359.474H1440.82M1400.77 399.526V439.579M1400.77 399.526H1440.82M1400.77 439.579V479.632M1400.77 439.579H1440.82M1400.77 479.632V519.684M1400.77 479.632H1440.82M1400.77 519.684V559.737M1400.77 519.684H1440.82M1400.77 559.737V599.789M1400.77 559.737H1440.82M1400.77 599.789V639.842M1400.77 599.789H1440.82M1400.77 639.842V679.895M1400.77 639.842H1440.82M1400.77 679.895V719.947M1400.77 679.895H1440.82M1400.77 719.947V760M1400.77 719.947H1440.82M1400.77 760H1440.82M1440.82 -1V39.0526M1440.82 -1H1480.86M1440.82 39.0526V79.1053M1440.82 39.0526H1480.86M1440.82 79.1053V119.158M1440.82 79.1053H1480.86M1440.82 119.158V159.211M1440.82 119.158H1480.86M1440.82 159.211V199.263M1440.82 159.211H1480.86M1440.82 199.263V239.316M1440.82 199.263H1480.86M1440.82 239.316V279.368M1440.82 239.316H1480.86M1440.82 279.368V319.421M1440.82 279.368H1480.86M1440.82 319.421V359.474M1440.82 319.421H1480.86M1440.82 359.474V399.526M1440.82 359.474H1480.86M1440.82 399.526V439.579M1440.82 399.526H1480.86M1440.82 439.579V479.632M1440.82 439.579H1480.86M1440.82 479.632V519.684M1440.82 479.632H1480.86M1440.82 519.684V559.737M1440.82 519.684H1480.86M1440.82 559.737V599.789M1440.82 559.737H1480.86M1440.82 599.789V639.842M1440.82 599.789H1480.86M1440.82 639.842V679.895M1440.82 639.842H1480.86M1440.82 679.895V719.947M1440.82 679.895H1480.86M1440.82 719.947V760M1440.82 719.947H1480.86M1440.82 760H1480.86M1480.86 -1V39.0526M1480.86 -1H1520.91M1480.86 39.0526V79.1053M1480.86 39.0526H1520.91M1480.86 79.1053V119.158M1480.86 79.1053H1520.91M1480.86 119.158V159.211M1480.86 119.158H1520.91M1480.86 159.211V199.263M1480.86 159.211H1520.91M1480.86 199.263V239.316M1480.86 199.263H1520.91M1480.86 239.316V279.368M1480.86 239.316H1520.91M1480.86 279.368V319.421M1480.86 279.368H1520.91M1480.86 319.421V359.474M1480.86 319.421H1520.91M1480.86 359.474V399.526M1480.86 359.474H1520.91M1480.86 399.526V439.579M1480.86 399.526H1520.91M1480.86 439.579V479.632M1480.86 439.579H1520.91M1480.86 479.632V519.684M1480.86 479.632H1520.91M1480.86 519.684V559.737M1480.86 519.684H1520.91M1480.86 559.737V599.789M1480.86 559.737H1520.91M1480.86 599.789V639.842M1480.86 599.789H1520.91M1480.86 639.842V679.895M1480.86 639.842H1520.91M1480.86 679.895V719.947M1480.86 679.895H1520.91M1480.86 719.947V760M1480.86 719.947H1520.91M1480.86 760H1520.91M1520.91 -1V39.0526M1520.91 -1H1560.95M1520.91 39.0526V79.1053M1520.91 39.0526H1560.95M1520.91 79.1053V119.158M1520.91 79.1053H1560.95M1520.91 119.158V159.211M1520.91 119.158H1560.95M1520.91 159.211V199.263M1520.91 159.211H1560.95M1520.91 199.263V239.316M1520.91 199.263H1560.95M1520.91 239.316V279.368M1520.91 239.316H1560.95M1520.91 279.368V319.421M1520.91 279.368H1560.95M1520.91 319.421V359.474M1520.91 319.421H1560.95M1520.91 359.474V399.526M1520.91 359.474H1560.95M1520.91 399.526V439.579M1520.91 399.526H1560.95M1520.91 439.579V479.632M1520.91 439.579H1560.95M1520.91 479.632V519.684M1520.91 479.632H1560.95M1520.91 519.684V559.737M1520.91 519.684H1560.95M1520.91 559.737V599.789M1520.91 559.737H1560.95M1520.91 599.789V639.842M1520.91 599.789H1560.95M1520.91 639.842V679.895M1520.91 639.842H1560.95M1520.91 679.895V719.947M1520.91 679.895H1560.95M1520.91 719.947V760M1520.91 719.947H1560.95M1520.91 760H1560.95M1560.95 -1V39.0526M1560.95 -1H1601V39.0526M1560.95 39.0526V79.1053M1560.95 39.0526H1601M1560.95 79.1053V119.158M1560.95 79.1053H1601M1560.95 119.158V159.211M1560.95 119.158H1601M1560.95 159.211V199.263M1560.95 159.211H1601M1560.95 199.263V239.316M1560.95 199.263H1601M1560.95 239.316V279.368M1560.95 239.316H1601M1560.95 279.368V319.421M1560.95 279.368H1601M1560.95 319.421V359.474M1560.95 319.421H1601M1560.95 359.474V399.526M1560.95 359.474H1601M1560.95 399.526V439.579M1560.95 399.526H1601M1560.95 439.579V479.632M1560.95 439.579H1601M1560.95 479.632V519.684M1560.95 479.632H1601M1560.95 519.684V559.737M1560.95 519.684H1601M1560.95 559.737V599.789M1560.95 559.737H1601M1560.95 599.789V639.842M1560.95 599.789H1601M1560.95 639.842V679.895M1560.95 639.842H1601M1560.95 679.895V719.947M1560.95 679.895H1601M1560.95 719.947V760M1560.95 719.947H1601M1560.95 760H1601V719.947M1601 39.0526V79.1053M1601 79.1053V119.158M1601 119.158V159.211M1601 159.211V199.263M1601 199.263V239.316M1601 239.316V279.368M1601 279.368V319.421M1601 319.421V359.474M1601 359.474V399.526M1601 399.526V439.579M1601 439.579V479.632M1601 479.632V519.684M1601 519.684V559.737M1601 559.737V599.789M1601 599.789V639.842M1601 639.842V679.895M1601 679.895V719.947" stroke="url(#paint0_radial_26_173)" stroke-opacity="0.28" stroke-width="0.900718"/>
<defs>
<radialGradient id="paint0_radial_26_173" cx="0" cy="0" r="1" gradientUnits="userSpaceOnUse" gradientTransform="translate(720 379.5) rotate(90) scale(380.5 711.423)">
<stop stop-color="#BCBCBC"/>
<stop offset="1" stop-color="#BCBCBC" stop-opacity="0"/>
</radialGradient>
</defs>
</svg>